<svg xmlns="http://www.w3.org/2000/svg" viewBox="0 0 200 200" width="200" height="200">
  <g id="band-0">
      <circle cx="117.42" cy="19.87" r="0.72" fill="currentColor" opacity="0.19"/>
      <circle cx="108.67" cy="18.46" r="0.72" fill="currentColor" opacity="0.19"/>
      <circle cx="100.63" cy="17.70" r="0.73" fill="currentColor" opacity="0.21"/>
      <circle cx="125.29" cy="21.68" r="0.73" fill="currentColor" opacity="0.21"/>
      <circle cx="94.84" cy="17.76" r="0.77" fill="currentColor" opacity="0.24"/>
      <circle cx="130.77" cy="23.55" r="0.77" fill="currentColor" opacity="0.24"/>
      <circle cx="92.45" cy="18.63" r="0.81" fill="currentColor" opacity="0.29"/>
      <circle cx="132.76" cy="25.13" r="0.81" fill="currentColor" opacity="0.29"/>
      <circle cx="94.05" cy="20.17" r="0.85" fill="currentColor" opacity="0.35"/>
      <circle cx="130.76" cy="26.09" r="0.85" fill="currentColor" opacity="0.35"/>
      <circle cx="99.42" cy="22.09" r="0.88" fill="currentColor" opacity="0.40"/>
      <circle cx="125.06" cy="26.22" r="0.88" fill="currentColor" opacity="0.40"/>
      <circle cx="107.55" cy="23.99" r="0.90" fill="currentColor" opacity="0.43"/>
      <circle cx="116.74" cy="25.47" r="0.90" fill="currentColor" opacity="0.43"/>
  </g>
  <g id="band-1">
      <circle cx="116.28" cy="27.92" r="0.60" fill="currentColor" opacity="0.08"/>
      <circle cx="105.92" cy="26.27" r="0.61" fill="currentColor" opacity="0.08"/>
      <circle cx="126.38" cy="29.89" r="0.61" fill="currentColor" opacity="0.08"/>
      <circle cx="95.76" cy="25.02" r="0.61" fill="currentColor" opacity="0.09"/>
      <circle cx="135.75" cy="32.10" r="0.63" fill="currentColor" opacity="0.10"/>
      <circle cx="86.28" cy="24.22" r="0.63" fill="currentColor" opacity="0.10"/>
      <circle cx="143.96" cy="34.44" r="0.65" fill="currentColor" opacity="0.12"/>
      <circle cx="77.92" cy="23.93" r="0.66" fill="currentColor" opacity="0.12"/>
      <circle cx="150.57" cy="36.81" r="0.69" fill="currentColor" opacity="0.15"/>
      <circle cx="71.12" cy="24.17" r="0.69" fill="currentColor" opacity="0.16"/>
      <circle cx="155.21" cy="39.10" r="0.73" fill="currentColor" opacity="0.20"/>
      <circle cx="66.26" cy="24.95" r="0.73" fill="currentColor" opacity="0.20"/>
      <circle cx="157.58" cy="41.17" r="0.78" fill="currentColor" opacity="0.26"/>
      <circle cx="63.65" cy="26.23" r="0.78" fill="currentColor" opacity="0.26"/>
      <circle cx="157.46" cy="42.92" r="0.83" fill="currentColor" opacity="0.32"/>
      <circle cx="63.54" cy="27.99" r="0.83" fill="currentColor" opacity="0.33"/>
      <circle cx="154.75" cy="44.23" r="0.88" fill="currentColor" opacity="0.40"/>
      <circle cx="66.03" cy="30.13" r="0.89" fill="currentColor" opacity="0.41"/>
      <circle cx="149.51" cy="45.02" r="0.93" fill="currentColor" opacity="0.48"/>
      <circle cx="71.07" cy="32.55" r="0.94" fill="currentColor" opacity="0.48"/>
      <circle cx="141.96" cy="45.20" r="0.97" fill="currentColor" opacity="0.55"/>
      <circle cx="78.46" cy="35.11" r="0.98" fill="currentColor" opacity="0.55"/>
      <circle cx="132.49" cy="44.77" r="1.01" fill="currentColor" opacity="0.61"/>
      <circle cx="87.80" cy="37.67" r="1.01" fill="currentColor" opacity="0.61"/>
      <circle cx="121.65" cy="43.72" r="1.03" fill="currentColor" opacity="0.64"/>
      <circle cx="98.57" cy="40.05" r="1.03" fill="currentColor" opacity="0.65"/>
      <circle cx="110.10" cy="42.11" r="1.04" fill="currentColor" opacity="0.66"/>
  </g>
  <g id="band-2">
      <circle cx="115.16" cy="37.41" r="0.56" fill="currentColor" opacity="0.04"/>
      <circle cx="105.27" cy="35.81" r="0.56" fill="currentColor" opacity="0.04"/>
      <circle cx="124.89" cy="39.26" r="0.56" fill="currentColor" opacity="0.05"/>
      <circle cx="95.45" cy="34.51" r="0.56" fill="currentColor" opacity="0.05"/>
      <circle cx="134.21" cy="41.32" r="0.57" fill="currentColor" opacity="0.05"/>
      <circle cx="85.95" cy="33.54" r="0.57" fill="currentColor" opacity="0.05"/>
      <circle cx="142.91" cy="43.55" r="0.59" fill="currentColor" opacity="0.06"/>
      <circle cx="77.00" cy="32.92" r="0.59" fill="currentColor" opacity="0.06"/>
      <circle cx="150.74" cy="45.89" r="0.61" fill="currentColor" opacity="0.08"/>
      <circle cx="68.84" cy="32.68" r="0.61" fill="currentColor" opacity="0.08"/>
      <circle cx="157.48" cy="48.28" r="0.63" fill="currentColor" opacity="0.10"/>
      <circle cx="61.69" cy="32.83" r="0.63" fill="currentColor" opacity="0.10"/>
      <circle cx="162.92" cy="50.67" r="0.67" fill="currentColor" opacity="0.13"/>
      <circle cx="55.78" cy="33.38" r="0.67" fill="currentColor" opacity="0.13"/>
      <circle cx="166.87" cy="52.98" r="0.71" fill="currentColor" opacity="0.18"/>
      <circle cx="51.30" cy="34.34" r="0.71" fill="currentColor" opacity="0.18"/>
      <circle cx="169.16" cy="55.15" r="0.75" fill="currentColor" opacity="0.23"/>
      <circle cx="48.45" cy="35.67" r="0.75" fill="currentColor" opacity="0.23"/>
      <circle cx="169.66" cy="57.10" r="0.80" fill="currentColor" opacity="0.29"/>
      <circle cx="47.37" cy="37.37" r="0.80" fill="currentColor" opacity="0.29"/>
      <circle cx="168.29" cy="58.77" r="0.85" fill="currentColor" opacity="0.36"/>
      <circle cx="48.15" cy="39.39" r="0.85" fill="currentColor" opacity="0.36"/>
      <circle cx="165.01" cy="60.10" r="0.90" fill="currentColor" opacity="0.44"/>
      <circle cx="50.85" cy="41.68" r="0.90" fill="currentColor" opacity="0.44"/>
      <circle cx="159.86" cy="61.01" r="0.95" fill="currentColor" opacity="0.51"/>
      <circle cx="55.46" cy="44.17" r="0.95" fill="currentColor" opacity="0.51"/>
      <circle cx="152.95" cy="61.48" r="1.00" fill="currentColor" opacity="0.59"/>
      <circle cx="61.88" cy="46.79" r="1.00" fill="currentColor" opacity="0.59"/>
      <circle cx="144.47" cy="61.47" r="1.04" fill="currentColor" opacity="0.66"/>
      <circle cx="69.94" cy="49.44" r="1.04" fill="currentColor" opacity="0.66"/>
      <circle cx="134.69" cy="60.96" r="1.07" fill="currentColor" opacity="0.71"/>
      <circle cx="79.38" cy="52.04" r="1.07" fill="currentColor" opacity="0.71"/>
      <circle cx="123.94" cy="59.97" r="1.09" fill="currentColor" opacity="0.75"/>
      <circle cx="89.91" cy="54.48" r="1.09" fill="currentColor" opacity="0.75"/>
      <circle cx="112.61" cy="58.52" r="1.10" fill="currentColor" opacity="0.78"/>
      <circle cx="101.12" cy="56.66" r="1.10" fill="currentColor" opacity="0.78"/>
  </g>
  <g id="band-3">
      <circle cx="111.30" cy="46.83" r="0.53" fill="currentColor" opacity="0.03"/>
      <circle cx="101.43" cy="45.30" r="0.53" fill="currentColor" opacity="0.03"/>
      <circle cx="121.07" cy="48.61" r="0.53" fill="currentColor" opacity="0.03"/>
      <circle cx="91.65" cy="44.05" r="0.53" fill="currentColor" opacity="0.03"/>
      <circle cx="130.58" cy="50.61" r="0.54" fill="currentColor" opacity="0.03"/>
      <circle cx="82.14" cy="43.10" r="0.54" fill="currentColor" opacity="0.04"/>
      <circle cx="139.65" cy="52.80" r="0.55" fill="currentColor" opacity="0.04"/>
      <circle cx="73.07" cy="42.48" r="0.55" fill="currentColor" opacity="0.04"/>
      <circle cx="148.10" cy="55.14" r="0.56" fill="currentColor" opacity="0.05"/>
      <circle cx="64.62" cy="42.20" r="0.57" fill="currentColor" opacity="0.05"/>
      <circle cx="155.77" cy="57.58" r="0.58" fill="currentColor" opacity="0.06"/>
      <circle cx="56.97" cy="42.27" r="0.59" fill="currentColor" opacity="0.07"/>
      <circle cx="162.48" cy="60.09" r="0.61" fill="currentColor" opacity="0.08"/>
      <circle cx="50.28" cy="42.71" r="0.62" fill="currentColor" opacity="0.09"/>
      <circle cx="168.06" cy="62.61" r="0.64" fill="currentColor" opacity="0.11"/>
      <circle cx="44.73" cy="43.52" r="0.65" fill="currentColor" opacity="0.12"/>
      <circle cx="172.38" cy="65.10" r="0.68" fill="currentColor" opacity="0.14"/>
      <circle cx="40.47" cy="44.68" r="0.69" fill="currentColor" opacity="0.16"/>
      <circle cx="175.28" cy="67.48" r="0.72" fill="currentColor" opacity="0.19"/>
      <circle cx="37.65" cy="46.20" r="0.74" fill="currentColor" opacity="0.21"/>
      <circle cx="176.65" cy="69.72" r="0.76" fill="currentColor" opacity="0.24"/>
      <circle cx="36.38" cy="48.04" r="0.79" fill="currentColor" opacity="0.27"/>
      <circle cx="176.39" cy="71.75" r="0.81" fill="currentColor" opacity="0.31"/>
      <circle cx="36.76" cy="50.18" r="0.84" fill="currentColor" opacity="0.34"/>
      <circle cx="174.45" cy="73.51" r="0.87" fill="currentColor" opacity="0.38"/>
      <circle cx="38.84" cy="52.58" r="0.89" fill="currentColor" opacity="0.41"/>
      <circle cx="170.81" cy="74.95" r="0.92" fill="currentColor" opacity="0.46"/>
      <circle cx="42.64" cy="55.18" r="0.94" fill="currentColor" opacity="0.49"/>
      <circle cx="165.50" cy="76.02" r="0.97" fill="currentColor" opacity="0.54"/>
      <circle cx="48.11" cy="57.92" r="0.99" fill="currentColor" opacity="0.57"/>
      <circle cx="158.60" cy="76.67" r="1.02" fill="currentColor" opacity="0.62"/>
      <circle cx="55.18" cy="60.73" r="1.04" fill="currentColor" opacity="0.65"/>
      <circle cx="150.25" cy="76.88" r="1.06" fill="currentColor" opacity="0.69"/>
      <circle cx="63.68" cy="63.54" r="1.07" fill="currentColor" opacity="0.72"/>
      <circle cx="140.66" cy="76.62" r="1.09" fill="currentColor" opacity="0.75"/>
      <circle cx="73.40" cy="66.26" r="1.11" fill="currentColor" opacity="0.78"/>
      <circle cx="130.07" cy="75.89" r="1.12" fill="currentColor" opacity="0.80"/>
      <circle cx="84.10" cy="68.81" r="1.13" fill="currentColor" opacity="0.82"/>
      <circle cx="118.79" cy="74.71" r="1.14" fill="currentColor" opacity="0.84"/>
      <circle cx="95.45" cy="71.11" r="1.14" fill="currentColor" opacity="0.84"/>
      <circle cx="107.13" cy="73.10" r="1.14" fill="currentColor" opacity="0.85"/>
  </g>
  <g id="band-4">
      <circle cx="111.82" cy="57.24" r="0.51" fill="currentColor" opacity="0.02"/>
      <circle cx="102.15" cy="55.68" r="0.51" fill="currentColor" opacity="0.02"/>
      <circle cx="121.39" cy="59.04" r="0.51" fill="currentColor" opacity="0.02"/>
      <circle cx="92.51" cy="54.38" r="0.51" fill="currentColor" opacity="0.02"/>
      <circle cx="130.71" cy="61.05" r="0.52" fill="currentColor" opacity="0.03"/>
      <circle cx="83.03" cy="53.36" r="0.52" fill="currentColor" opacity="0.03"/>
      <circle cx="139.63" cy="63.25" r="0.53" fill="currentColor" opacity="0.03"/>
      <circle cx="73.87" cy="52.64" r="0.53" fill="currentColor" opacity="0.03"/>
      <circle cx="148.03" cy="65.59" r="0.54" fill="currentColor" opacity="0.03"/>
      <circle cx="65.17" cy="52.23" r="0.54" fill="currentColor" opacity="0.03"/>
      <circle cx="155.75" cy="68.06" r="0.55" fill="currentColor" opacity="0.04"/>
      <circle cx="57.06" cy="52.15" r="0.56" fill="currentColor" opacity="0.04"/>
      <circle cx="162.67" cy="70.62" r="0.58" fill="currentColor" opacity="0.06"/>
      <circle cx="49.70" cy="52.40" r="0.58" fill="currentColor" opacity="0.06"/>
      <circle cx="168.65" cy="73.22" r="0.60" fill="currentColor" opacity="0.08"/>
      <circle cx="43.21" cy="52.99" r="0.60" fill="currentColor" opacity="0.08"/>
      <circle cx="173.56" cy="75.82" r="0.64" fill="currentColor" opacity="0.10"/>
      <circle cx="37.74" cy="53.92" r="0.64" fill="currentColor" opacity="0.10"/>
      <circle cx="177.27" cy="78.38" r="0.67" fill="currentColor" opacity="0.14"/>
      <circle cx="33.42" cy="55.18" r="0.67" fill="currentColor" opacity="0.14"/>
      <circle cx="179.68" cy="80.85" r="0.72" fill="currentColor" opacity="0.18"/>
      <circle cx="30.37" cy="56.77" r="0.72" fill="currentColor" opacity="0.18"/>
      <circle cx="180.69" cy="83.18" r="0.76" fill="currentColor" opacity="0.24"/>
      <circle cx="28.69" cy="58.67" r="0.76" fill="currentColor" opacity="0.24"/>
      <circle cx="180.22" cy="85.32" r="0.81" fill="currentColor" opacity="0.30"/>
      <circle cx="28.47" cy="60.85" r="0.81" fill="currentColor" opacity="0.30"/>
      <circle cx="178.23" cy="87.22" r="0.86" fill="currentColor" opacity="0.37"/>
      <circle cx="29.78" cy="63.28" r="0.86" fill="currentColor" opacity="0.37"/>
      <circle cx="174.70" cy="88.83" r="0.91" fill="currentColor" opacity="0.45"/>
      <circle cx="32.64" cy="65.92" r="0.91" fill="currentColor" opacity="0.45"/>
      <circle cx="169.64" cy="90.09" r="0.96" fill="currentColor" opacity="0.53"/>
      <circle cx="37.05" cy="68.71" r="0.96" fill="currentColor" opacity="0.53"/>
      <circle cx="163.12" cy="90.98" r="1.01" fill="currentColor" opacity="0.61"/>
      <circle cx="42.97" cy="71.60" r="1.01" fill="currentColor" opacity="0.61"/>
      <circle cx="155.25" cy="91.45" r="1.05" fill="currentColor" opacity="0.68"/>
      <circle cx="50.31" cy="74.53" r="1.05" fill="currentColor" opacity="0.68"/>
      <circle cx="146.16" cy="91.48" r="1.09" fill="currentColor" opacity="0.75"/>
      <circle cx="58.93" cy="77.42" r="1.09" fill="currentColor" opacity="0.75"/>
      <circle cx="136.06" cy="91.07" r="1.12" fill="currentColor" opacity="0.81"/>
      <circle cx="68.66" cy="80.20" r="1.12" fill="currentColor" opacity="0.81"/>
      <circle cx="125.17" cy="90.21" r="1.15" fill="currentColor" opacity="0.85"/>
      <circle cx="79.27" cy="82.81" r="1.15" fill="currentColor" opacity="0.85"/>
      <circle cx="113.76" cy="88.92" r="1.16" fill="currentColor" opacity="0.88"/>
      <circle cx="90.51" cy="85.17" r="1.16" fill="currentColor" opacity="0.88"/>
      <circle cx="102.11" cy="87.23" r="1.16" fill="currentColor" opacity="0.89"/>
  </g>
  <g id="band-5">
      <circle cx="105.26" cy="66.68" r="0.50" fill="currentColor" opacity="0.02"/>
      <circle cx="114.88" cy="68.36" r="0.50" fill="currentColor" opacity="0.02"/>
      <circle cx="95.60" cy="65.25" r="0.50" fill="currentColor" opacity="0.02"/>
      <circle cx="124.34" cy="70.27" r="0.50" fill="currentColor" opacity="0.02"/>
      <circle cx="86.02" cy="64.10" r="0.50" fill="currentColor" opacity="0.02"/>
      <circle cx="133.50" cy="72.39" r="0.51" fill="currentColor" opacity="0.02"/>
      <circle cx="76.66" cy="63.24" r="0.51" fill="currentColor" opacity="0.02"/>
      <circle cx="142.25" cy="74.69" r="0.52" fill="currentColor" opacity="0.03"/>
      <circle cx="67.65" cy="62.68" r="0.52" fill="currentColor" opacity="0.03"/>
      <circle cx="150.45" cy="77.15" r="0.53" fill="currentColor" opacity="0.03"/>
      <circle cx="59.10" cy="62.44" r="0.53" fill="currentColor" opacity="0.03"/>
      <circle cx="157.97" cy="79.74" r="0.55" fill="currentColor" opacity="0.04"/>
      <circle cx="51.16" cy="62.53" r="0.55" fill="currentColor" opacity="0.04"/>
      <circle cx="164.70" cy="82.41" r="0.57" fill="currentColor" opacity="0.05"/>
      <circle cx="43.95" cy="62.96" r="0.57" fill="currentColor" opacity="0.05"/>
      <circle cx="170.51" cy="85.13" r="0.59" fill="currentColor" opacity="0.07"/>
      <circle cx="37.60" cy="63.73" r="0.59" fill="currentColor" opacity="0.07"/>
      <circle cx="175.29" cy="87.86" r="0.62" fill="currentColor" opacity="0.09"/>
      <circle cx="32.24" cy="64.83" r="0.62" fill="currentColor" opacity="0.09"/>
      <circle cx="178.91" cy="90.56" r="0.66" fill="currentColor" opacity="0.13"/>
      <circle cx="27.98" cy="66.26" r="0.66" fill="currentColor" opacity="0.13"/>
      <circle cx="181.28" cy="93.19" r="0.70" fill="currentColor" opacity="0.17"/>
      <circle cx="24.93" cy="68.01" r="0.70" fill="currentColor" opacity="0.17"/>
      <circle cx="182.31" cy="95.68" r="0.75" fill="currentColor" opacity="0.22"/>
      <circle cx="23.20" cy="70.07" r="0.75" fill="currentColor" opacity="0.22"/>
      <circle cx="181.92" cy="98.00" r="0.80" fill="currentColor" opacity="0.28"/>
      <circle cx="22.88" cy="72.40" r="0.80" fill="currentColor" opacity="0.28"/>
      <circle cx="180.07" cy="100.10" r="0.85" fill="currentColor" opacity="0.35"/>
      <circle cx="24.01" cy="74.97" r="0.85" fill="currentColor" opacity="0.35"/>
      <circle cx="176.73" cy="101.91" r="0.90" fill="currentColor" opacity="0.43"/>
      <circle cx="26.64" cy="77.75" r="0.90" fill="currentColor" opacity="0.43"/>
      <circle cx="171.93" cy="103.40" r="0.95" fill="currentColor" opacity="0.51"/>
      <circle cx="30.77" cy="80.68" r="0.95" fill="currentColor" opacity="0.51"/>
      <circle cx="165.69" cy="104.53" r="1.00" fill="currentColor" opacity="0.59"/>
      <circle cx="36.37" cy="83.71" r="1.00" fill="currentColor" opacity="0.59"/>
      <circle cx="158.11" cy="105.25" r="1.04" fill="currentColor" opacity="0.66"/>
      <circle cx="43.37" cy="86.78" r="1.04" fill="currentColor" opacity="0.66"/>
      <circle cx="149.31" cy="105.54" r="1.08" fill="currentColor" opacity="0.73"/>
      <circle cx="51.66" cy="89.82" r="1.08" fill="currentColor" opacity="0.74"/>
      <circle cx="139.47" cy="105.38" r="1.12" fill="currentColor" opacity="0.80"/>
      <circle cx="61.08" cy="92.76" r="1.12" fill="currentColor" opacity="0.80"/>
      <circle cx="128.78" cy="104.76" r="1.14" fill="currentColor" opacity="0.85"/>
      <circle cx="71.44" cy="95.53" r="1.14" fill="currentColor" opacity="0.85"/>
      <circle cx="117.47" cy="103.70" r="1.16" fill="currentColor" opacity="0.88"/>
      <circle cx="82.52" cy="98.07" r="1.16" fill="currentColor" opacity="0.88"/>
      <circle cx="105.81" cy="102.21" r="1.17" fill="currentColor" opacity="0.90"/>
      <circle cx="94.07" cy="100.32" r="1.17" fill="currentColor" opacity="0.90"/>
  </g>
  <g id="band-6">
      <circle cx="103.62" cy="77.16" r="0.50" fill="currentColor" opacity="0.02"/>
      <circle cx="113.21" cy="78.84" r="0.50" fill="currentColor" opacity="0.02"/>
      <circle cx="93.99" cy="75.74" r="0.50" fill="currentColor" opacity="0.02"/>
      <circle cx="122.64" cy="80.77" r="0.50" fill="currentColor" opacity="0.02"/>
      <circle cx="84.44" cy="74.61" r="0.50" fill="currentColor" opacity="0.02"/>
      <circle cx="131.78" cy="82.91" r="0.50" fill="currentColor" opacity="0.02"/>
      <circle cx="75.09" cy="73.77" r="0.50" fill="currentColor" opacity="0.02"/>
      <circle cx="140.52" cy="85.25" r="0.51" fill="currentColor" opacity="0.02"/>
      <circle cx="66.06" cy="73.25" r="0.51" fill="currentColor" opacity="0.02"/>
      <circle cx="148.74" cy="87.76" r="0.52" fill="currentColor" opacity="0.03"/>
      <circle cx="57.48" cy="73.05" r="0.52" fill="currentColor" opacity="0.03"/>
      <circle cx="156.32" cy="90.41" r="0.53" fill="currentColor" opacity="0.03"/>
      <circle cx="49.46" cy="73.19" r="0.53" fill="currentColor" opacity="0.03"/>
      <circle cx="163.13" cy="93.17" r="0.55" fill="currentColor" opacity="0.04"/>
      <circle cx="42.13" cy="73.66" r="0.55" fill="currentColor" opacity="0.04"/>
      <circle cx="169.07" cy="95.99" r="0.58" fill="currentColor" opacity="0.06"/>
      <circle cx="35.62" cy="74.48" r="0.58" fill="currentColor" opacity="0.06"/>
      <circle cx="174.01" cy="98.85" r="0.61" fill="currentColor" opacity="0.08"/>
      <circle cx="30.05" cy="75.64" r="0.61" fill="currentColor" opacity="0.08"/>
      <circle cx="177.85" cy="101.69" r="0.64" fill="currentColor" opacity="0.11"/>
      <circle cx="25.53" cy="77.14" r="0.64" fill="currentColor" opacity="0.11"/>
      <circle cx="180.48" cy="104.48" r="0.68" fill="currentColor" opacity="0.15"/>
      <circle cx="22.16" cy="78.96" r="0.68" fill="currentColor" opacity="0.15"/>
      <circle cx="181.82" cy="107.16" r="0.72" fill="currentColor" opacity="0.19"/>
      <circle cx="20.07" cy="81.08" r="0.72" fill="currentColor" opacity="0.19"/>
      <circle cx="181.79" cy="109.68" r="0.77" fill="currentColor" opacity="0.25"/>
      <circle cx="19.31" cy="83.49" r="0.77" fill="currentColor" opacity="0.25"/>
      <circle cx="180.35" cy="112.00" r="0.82" fill="currentColor" opacity="0.31"/>
      <circle cx="19.98" cy="86.15" r="0.82" fill="currentColor" opacity="0.32"/>
      <circle cx="177.45" cy="114.06" r="0.87" fill="currentColor" opacity="0.39"/>
      <circle cx="22.10" cy="89.02" r="0.87" fill="currentColor" opacity="0.39"/>
      <circle cx="173.10" cy="115.81" r="0.92" fill="currentColor" opacity="0.46"/>
      <circle cx="25.69" cy="92.05" r="0.92" fill="currentColor" opacity="0.46"/>
      <circle cx="167.34" cy="117.21" r="0.97" fill="currentColor" opacity="0.54"/>
      <circle cx="30.74" cy="95.20" r="0.97" fill="currentColor" opacity="0.54"/>
      <circle cx="160.22" cy="118.22" r="1.02" fill="currentColor" opacity="0.62"/>
      <circle cx="37.19" cy="98.39" r="1.02" fill="currentColor" opacity="0.62"/>
      <circle cx="151.86" cy="118.80" r="1.06" fill="currentColor" opacity="0.69"/>
      <circle cx="44.96" cy="101.57" r="1.06" fill="currentColor" opacity="0.69"/>
      <circle cx="142.41" cy="118.93" r="1.09" fill="currentColor" opacity="0.76"/>
      <circle cx="53.91" cy="104.66" r="1.09" fill="currentColor" opacity="0.76"/>
      <circle cx="132.04" cy="118.59" r="1.12" fill="currentColor" opacity="0.81"/>
      <circle cx="63.87" cy="107.60" r="1.12" fill="currentColor" opacity="0.81"/>
      <circle cx="120.96" cy="117.78" r="1.14" fill="currentColor" opacity="0.85"/>
      <circle cx="74.65" cy="110.32" r="1.15" fill="currentColor" opacity="0.85"/>
      <circle cx="109.42" cy="116.52" r="1.16" fill="currentColor" opacity="0.88"/>
      <circle cx="86.00" cy="112.75" r="1.16" fill="currentColor" opacity="0.88"/>
      <circle cx="97.68" cy="114.83" r="1.16" fill="currentColor" opacity="0.89"/>
  </g>
  <g id="band-7">
      <circle cx="98.68" cy="87.39" r="0.50" fill="currentColor" opacity="0.02"/>
      <circle cx="108.27" cy="88.98" r="0.50" fill="currentColor" opacity="0.02"/>
      <circle cx="89.09" cy="86.08" r="0.50" fill="currentColor" opacity="0.02"/>
      <circle cx="117.72" cy="90.84" r="0.50" fill="currentColor" opacity="0.02"/>
      <circle cx="79.62" cy="85.08" r="0.50" fill="currentColor" opacity="0.02"/>
      <circle cx="126.94" cy="92.94" r="0.50" fill="currentColor" opacity="0.02"/>
      <circle cx="70.39" cy="84.40" r="0.50" fill="currentColor" opacity="0.02"/>
      <circle cx="135.79" cy="95.27" r="0.50" fill="currentColor" opacity="0.02"/>
      <circle cx="61.51" cy="84.05" r="0.51" fill="currentColor" opacity="0.02"/>
      <circle cx="144.16" cy="97.78" r="0.51" fill="currentColor" opacity="0.02"/>
      <circle cx="53.12" cy="84.04" r="0.52" fill="currentColor" opacity="0.03"/>
      <circle cx="151.92" cy="100.46" r="0.52" fill="currentColor" opacity="0.03"/>
      <circle cx="45.34" cy="84.38" r="0.53" fill="currentColor" opacity="0.03"/>
      <circle cx="158.96" cy="103.28" r="0.54" fill="currentColor" opacity="0.03"/>
      <circle cx="38.28" cy="85.07" r="0.55" fill="currentColor" opacity="0.04"/>
      <circle cx="165.16" cy="106.18" r="0.56" fill="currentColor" opacity="0.05"/>
      <circle cx="32.07" cy="86.12" r="0.58" fill="currentColor" opacity="0.06"/>
      <circle cx="170.41" cy="109.14" r="0.59" fill="currentColor" opacity="0.06"/>
      <circle cx="26.84" cy="87.52" r="0.61" fill="currentColor" opacity="0.08"/>
      <circle cx="174.59" cy="112.12" r="0.62" fill="currentColor" opacity="0.09"/>
      <circle cx="22.69" cy="89.26" r="0.64" fill="currentColor" opacity="0.11"/>
      <circle cx="177.59" cy="115.06" r="0.65" fill="currentColor" opacity="0.12"/>
      <circle cx="19.73" cy="91.32" r="0.68" fill="currentColor" opacity="0.15"/>
      <circle cx="179.34" cy="117.91" r="0.70" fill="currentColor" opacity="0.16"/>
      <circle cx="18.05" cy="93.69" r="0.73" fill="currentColor" opacity="0.20"/>
      <circle cx="179.75" cy="120.64" r="0.74" fill="currentColor" opacity="0.21"/>
      <circle cx="17.75" cy="96.33" r="0.77" fill="currentColor" opacity="0.25"/>
      <circle cx="178.76" cy="123.18" r="0.79" fill="currentColor" opacity="0.27"/>
      <circle cx="18.87" cy="99.21" r="0.82" fill="currentColor" opacity="0.32"/>
      <circle cx="176.33" cy="125.48" r="0.84" fill="currentColor" opacity="0.34"/>
      <circle cx="21.45" cy="102.28" r="0.87" fill="currentColor" opacity="0.39"/>
      <circle cx="172.45" cy="127.48" r="0.89" fill="currentColor" opacity="0.41"/>
      <circle cx="25.50" cy="105.50" r="0.92" fill="currentColor" opacity="0.46"/>
      <circle cx="167.15" cy="129.14" r="0.94" fill="currentColor" opacity="0.49"/>
      <circle cx="30.99" cy="108.79" r="0.97" fill="currentColor" opacity="0.54"/>
      <circle cx="160.48" cy="130.41" r="0.98" fill="currentColor" opacity="0.56"/>
      <circle cx="37.85" cy="112.10" r="1.01" fill="currentColor" opacity="0.61"/>
      <circle cx="152.53" cy="131.26" r="1.03" fill="currentColor" opacity="0.64"/>
      <circle cx="45.98" cy="115.36" r="1.05" fill="currentColor" opacity="0.68"/>
      <circle cx="143.44" cy="131.64" r="1.06" fill="currentColor" opacity="0.70"/>
      <circle cx="55.23" cy="118.49" r="1.09" fill="currentColor" opacity="0.74"/>
      <circle cx="133.38" cy="131.55" r="1.10" fill="currentColor" opacity="0.76"/>
      <circle cx="65.44" cy="121.42" r="1.11" fill="currentColor" opacity="0.79"/>
      <circle cx="122.54" cy="130.97" r="1.12" fill="currentColor" opacity="0.80"/>
      <circle cx="76.38" cy="124.09" r="1.13" fill="currentColor" opacity="0.83"/>
      <circle cx="111.17" cy="129.91" r="1.14" fill="currentColor" opacity="0.83"/>
      <circle cx="87.83" cy="126.43" r="1.14" fill="currentColor" opacity="0.85"/>
      <circle cx="99.51" cy="128.38" r="1.14" fill="currentColor" opacity="0.85"/>
  </g>
  <g id="band-8">
      <circle cx="101.42" cy="99.16" r="0.50" fill="currentColor" opacity="0.02"/>
      <circle cx="91.85" cy="97.73" r="0.50" fill="currentColor" opacity="0.02"/>
      <circle cx="110.93" cy="100.89" r="0.50" fill="currentColor" opacity="0.02"/>
      <circle cx="82.34" cy="96.62" r="0.50" fill="currentColor" opacity="0.02"/>
      <circle cx="120.24" cy="102.90" r="0.50" fill="currentColor" opacity="0.02"/>
      <circle cx="73.02" cy="95.84" r="0.50" fill="currentColor" opacity="0.02"/>
      <circle cx="129.24" cy="105.16" r="0.50" fill="currentColor" opacity="0.02"/>
      <circle cx="64.01" cy="95.42" r="0.50" fill="currentColor" opacity="0.02"/>
      <circle cx="137.80" cy="107.64" r="0.50" fill="currentColor" opacity="0.02"/>
      <circle cx="55.44" cy="95.35" r="0.51" fill="currentColor" opacity="0.02"/>
      <circle cx="145.79" cy="110.32" r="0.51" fill="currentColor" opacity="0.02"/>
      <circle cx="47.45" cy="95.66" r="0.52" fill="currentColor" opacity="0.03"/>
      <circle cx="153.08" cy="113.16" r="0.53" fill="currentColor" opacity="0.03"/>
      <circle cx="40.16" cy="96.33" r="0.54" fill="currentColor" opacity="0.04"/>
      <circle cx="159.57" cy="116.13" r="0.55" fill="currentColor" opacity="0.04"/>
      <circle cx="33.70" cy="97.39" r="0.56" fill="currentColor" opacity="0.05"/>
      <circle cx="165.12" cy="119.18" r="0.57" fill="currentColor" opacity="0.05"/>
      <circle cx="28.19" cy="98.81" r="0.59" fill="currentColor" opacity="0.07"/>
      <circle cx="169.61" cy="122.27" r="0.60" fill="currentColor" opacity="0.07"/>
      <circle cx="23.75" cy="100.59" r="0.62" fill="currentColor" opacity="0.09"/>
      <circle cx="172.95" cy="125.34" r="0.63" fill="currentColor" opacity="0.10"/>
      <circle cx="20.50" cy="102.71" r="0.66" fill="currentColor" opacity="0.13"/>
      <circle cx="175.03" cy="128.36" r="0.67" fill="currentColor" opacity="0.14"/>
      <circle cx="18.54" cy="105.15" r="0.70" fill="currentColor" opacity="0.17"/>
      <circle cx="175.76" cy="131.26" r="0.72" fill="currentColor" opacity="0.18"/>
      <circle cx="17.95" cy="107.88" r="0.75" fill="currentColor" opacity="0.22"/>
      <circle cx="175.09" cy="133.98" r="0.76" fill="currentColor" opacity="0.24"/>
      <circle cx="18.80" cy="110.85" r="0.80" fill="currentColor" opacity="0.28"/>
      <circle cx="172.97" cy="136.47" r="0.81" fill="currentColor" opacity="0.30"/>
      <circle cx="21.13" cy="114.03" r="0.85" fill="currentColor" opacity="0.35"/>
      <circle cx="169.38" cy="138.67" r="0.86" fill="currentColor" opacity="0.37"/>
      <circle cx="24.94" cy="117.35" r="0.90" fill="currentColor" opacity="0.42"/>
      <circle cx="164.34" cy="140.53" r="0.91" fill="currentColor" opacity="0.44"/>
      <circle cx="30.21" cy="120.75" r="0.94" fill="currentColor" opacity="0.49"/>
      <circle cx="157.90" cy="141.99" r="0.95" fill="currentColor" opacity="0.51"/>
      <circle cx="36.89" cy="124.16" r="0.99" fill="currentColor" opacity="0.56"/>
      <circle cx="150.17" cy="143.01" r="1.00" fill="currentColor" opacity="0.58"/>
      <circle cx="44.85" cy="127.51" r="1.02" fill="currentColor" opacity="0.63"/>
      <circle cx="141.26" cy="143.56" r="1.03" fill="currentColor" opacity="0.65"/>
      <circle cx="53.97" cy="130.72" r="1.06" fill="currentColor" opacity="0.69"/>
      <circle cx="131.35" cy="143.60" r="1.06" fill="currentColor" opacity="0.70"/>
      <circle cx="64.06" cy="133.71" r="1.08" fill="currentColor" opacity="0.74"/>
      <circle cx="120.65" cy="143.13" r="1.09" fill="currentColor" opacity="0.75"/>
      <circle cx="74.90" cy="136.41" r="1.10" fill="currentColor" opacity="0.77"/>
      <circle cx="109.39" cy="142.15" r="1.11" fill="currentColor" opacity="0.78"/>
      <circle cx="86.24" cy="138.75" r="1.11" fill="currentColor" opacity="0.79"/>
      <circle cx="97.83" cy="140.68" r="1.11" fill="currentColor" opacity="0.79"/>
  </g>
  <g id="band-9">
      <circle cx="94.07" cy="109.77" r="0.50" fill="currentColor" opacity="0.02"/>
      <circle cx="103.58" cy="111.33" r="0.50" fill="currentColor" opacity="0.02"/>
      <circle cx="84.56" cy="108.56" r="0.50" fill="currentColor" opacity="0.02"/>
      <circle cx="112.96" cy="113.20" r="0.50" fill="currentColor" opacity="0.02"/>
      <circle cx="75.21" cy="107.71" r="0.50" fill="currentColor" opacity="0.02"/>
      <circle cx="122.07" cy="115.37" r="0.50" fill="currentColor" opacity="0.02"/>
      <circle cx="66.14" cy="107.24" r="0.50" fill="currentColor" opacity="0.02"/>
      <circle cx="130.78" cy="117.80" r="0.50" fill="currentColor" opacity="0.02"/>
      <circle cx="57.50" cy="107.16" r="0.51" fill="currentColor" opacity="0.02"/>
      <circle cx="138.94" cy="120.46" r="0.51" fill="currentColor" opacity="0.02"/>
      <circle cx="49.43" cy="107.48" r="0.52" fill="currentColor" opacity="0.03"/>
      <circle cx="146.42" cy="123.32" r="0.52" fill="currentColor" opacity="0.03"/>
      <circle cx="42.07" cy="108.20" r="0.54" fill="currentColor" opacity="0.03"/>
      <circle cx="153.08" cy="126.33" r="0.54" fill="currentColor" opacity="0.03"/>
      <circle cx="35.56" cy="109.32" r="0.56" fill="currentColor" opacity="0.05"/>
      <circle cx="158.80" cy="129.46" r="0.56" fill="currentColor" opacity="0.05"/>
      <circle cx="30.04" cy="110.84" r="0.58" fill="currentColor" opacity="0.06"/>
      <circle cx="163.44" cy="132.64" r="0.59" fill="currentColor" opacity="0.07"/>
      <circle cx="25.63" cy="112.74" r="0.62" fill="currentColor" opacity="0.09"/>
      <circle cx="166.90" cy="135.83" r="0.62" fill="currentColor" opacity="0.09"/>
      <circle cx="22.46" cy="115.00" r="0.65" fill="currentColor" opacity="0.12"/>
      <circle cx="169.05" cy="138.96" r="0.66" fill="currentColor" opacity="0.12"/>
      <circle cx="20.63" cy="117.59" r="0.70" fill="currentColor" opacity="0.16"/>
      <circle cx="169.82" cy="141.99" r="0.70" fill="currentColor" opacity="0.17"/>
      <circle cx="20.22" cy="120.48" r="0.74" fill="currentColor" opacity="0.21"/>
      <circle cx="169.14" cy="144.83" r="0.74" fill="currentColor" opacity="0.22"/>
      <circle cx="21.31" cy="123.61" r="0.79" fill="currentColor" opacity="0.27"/>
      <circle cx="166.96" cy="147.43" r="0.79" fill="currentColor" opacity="0.28"/>
      <circle cx="23.93" cy="126.94" r="0.83" fill="currentColor" opacity="0.33"/>
      <circle cx="163.27" cy="149.73" r="0.84" fill="currentColor" opacity="0.34"/>
      <circle cx="28.07" cy="130.38" r="0.88" fill="currentColor" opacity="0.40"/>
      <circle cx="158.09" cy="151.66" r="0.89" fill="currentColor" opacity="0.41"/>
      <circle cx="33.70" cy="133.88" r="0.93" fill="currentColor" opacity="0.47"/>
      <circle cx="151.50" cy="153.16" r="0.93" fill="currentColor" opacity="0.47"/>
      <circle cx="40.74" cy="137.35" r="0.97" fill="currentColor" opacity="0.53"/>
      <circle cx="143.60" cy="154.19" r="0.97" fill="currentColor" opacity="0.54"/>
      <circle cx="49.05" cy="140.71" r="1.00" fill="currentColor" opacity="0.59"/>
      <circle cx="134.54" cy="154.70" r="1.01" fill="currentColor" opacity="0.60"/>
      <circle cx="58.46" cy="143.87" r="1.03" fill="currentColor" opacity="0.64"/>
      <circle cx="124.51" cy="154.68" r="1.03" fill="currentColor" opacity="0.65"/>
      <circle cx="68.78" cy="146.75" r="1.05" fill="currentColor" opacity="0.68"/>
      <circle cx="113.75" cy="154.11" r="1.05" fill="currentColor" opacity="0.68"/>
      <circle cx="79.74" cy="149.27" r="1.07" fill="currentColor" opacity="0.71"/>
      <circle cx="102.51" cy="153.00" r="1.07" fill="currentColor" opacity="0.71"/>
      <circle cx="91.08" cy="151.38" r="1.07" fill="currentColor" opacity="0.71"/>
  </g>
  <g id="band-10">
      <circle cx="92.94" cy="121.94" r="0.50" fill="currentColor" opacity="0.02"/>
      <circle cx="102.56" cy="123.55" r="0.50" fill="currentColor" opacity="0.02"/>
      <circle cx="83.32" cy="120.73" r="0.50" fill="currentColor" opacity="0.02"/>
      <circle cx="112.00" cy="125.53" r="0.50" fill="currentColor" opacity="0.02"/>
      <circle cx="73.87" cy="119.95" r="0.50" fill="currentColor" opacity="0.02"/>
      <circle cx="121.10" cy="127.85" r="0.50" fill="currentColor" opacity="0.02"/>
      <circle cx="64.77" cy="119.60" r="0.51" fill="currentColor" opacity="0.02"/>
      <circle cx="129.68" cy="130.47" r="0.51" fill="currentColor" opacity="0.02"/>
      <circle cx="56.19" cy="119.72" r="0.52" fill="currentColor" opacity="0.02"/>
      <circle cx="137.57" cy="133.35" r="0.52" fill="currentColor" opacity="0.03"/>
      <circle cx="48.31" cy="120.30" r="0.53" fill="currentColor" opacity="0.03"/>
      <circle cx="144.60" cy="136.43" r="0.53" fill="currentColor" opacity="0.03"/>
      <circle cx="41.31" cy="121.34" r="0.55" fill="currentColor" opacity="0.04"/>
      <circle cx="150.62" cy="139.67" r="0.56" fill="currentColor" opacity="0.04"/>
      <circle cx="35.33" cy="122.84" r="0.57" fill="currentColor" opacity="0.05"/>
      <circle cx="155.47" cy="142.99" r="0.58" fill="currentColor" opacity="0.06"/>
      <circle cx="30.56" cy="124.78" r="0.60" fill="currentColor" opacity="0.08"/>
      <circle cx="159.00" cy="146.33" r="0.61" fill="currentColor" opacity="0.08"/>
      <circle cx="27.12" cy="127.13" r="0.64" fill="currentColor" opacity="0.11"/>
      <circle cx="161.09" cy="149.62" r="0.65" fill="currentColor" opacity="0.12"/>
      <circle cx="25.15" cy="129.86" r="0.68" fill="currentColor" opacity="0.15"/>
      <circle cx="161.65" cy="152.78" r="0.69" fill="currentColor" opacity="0.16"/>
      <circle cx="24.76" cy="132.91" r="0.72" fill="currentColor" opacity="0.19"/>
      <circle cx="160.59" cy="155.73" r="0.74" fill="currentColor" opacity="0.21"/>
      <circle cx="26.01" cy="136.22" r="0.77" fill="currentColor" opacity="0.25"/>
      <circle cx="157.89" cy="158.39" r="0.78" fill="currentColor" opacity="0.26"/>
      <circle cx="28.94" cy="139.73" r="0.82" fill="currentColor" opacity="0.31"/>
      <circle cx="153.54" cy="160.68" r="0.83" fill="currentColor" opacity="0.33"/>
      <circle cx="33.53" cy="143.33" r="0.86" fill="currentColor" opacity="0.37"/>
      <circle cx="147.60" cy="162.53" r="0.87" fill="currentColor" opacity="0.39"/>
      <circle cx="39.71" cy="146.95" r="0.90" fill="currentColor" opacity="0.43"/>
      <circle cx="140.18" cy="163.86" r="0.91" fill="currentColor" opacity="0.45"/>
      <circle cx="47.36" cy="150.48" r="0.94" fill="currentColor" opacity="0.49"/>
      <circle cx="131.45" cy="164.64" r="0.95" fill="currentColor" opacity="0.51"/>
      <circle cx="56.31" cy="153.81" r="0.97" fill="currentColor" opacity="0.54"/>
      <circle cx="121.62" cy="164.81" r="0.98" fill="currentColor" opacity="0.56"/>
      <circle cx="66.31" cy="156.85" r="1.00" fill="currentColor" opacity="0.58"/>
      <circle cx="110.96" cy="164.37" r="1.00" fill="currentColor" opacity="0.59"/>
      <circle cx="77.10" cy="159.50" r="1.01" fill="currentColor" opacity="0.61"/>
      <circle cx="99.76" cy="163.32" r="1.01" fill="currentColor" opacity="0.61"/>
      <circle cx="88.36" cy="161.68" r="1.02" fill="currentColor" opacity="0.62"/>
  </g>
  <g id="band-11">
      <circle cx="91.81" cy="134.97" r="0.50" fill="currentColor" opacity="0.02"/>
      <circle cx="101.38" cy="136.64" r="0.50" fill="currentColor" opacity="0.02"/>
      <circle cx="82.22" cy="133.79" r="0.50" fill="currentColor" opacity="0.02"/>
      <circle cx="110.70" cy="138.74" r="0.51" fill="currentColor" opacity="0.02"/>
      <circle cx="72.86" cy="133.12" r="0.51" fill="currentColor" opacity="0.02"/>
      <circle cx="119.54" cy="141.23" r="0.51" fill="currentColor" opacity="0.02"/>
      <circle cx="63.94" cy="132.99" r="0.52" fill="currentColor" opacity="0.03"/>
      <circle cx="127.68" cy="144.06" r="0.52" fill="currentColor" opacity="0.03"/>
      <circle cx="55.71" cy="133.40" r="0.53" fill="currentColor" opacity="0.03"/>
      <circle cx="134.89" cy="147.16" r="0.54" fill="currentColor" opacity="0.03"/>
      <circle cx="48.39" cy="134.35" r="0.55" fill="currentColor" opacity="0.04"/>
      <circle cx="140.96" cy="150.45" r="0.56" fill="currentColor" opacity="0.04"/>
      <circle cx="42.20" cy="135.84" r="0.57" fill="currentColor" opacity="0.05"/>
      <circle cx="145.70" cy="153.86" r="0.58" fill="currentColor" opacity="0.06"/>
      <circle cx="37.34" cy="137.85" r="0.60" fill="currentColor" opacity="0.07"/>
      <circle cx="148.93" cy="157.29" r="0.62" fill="currentColor" opacity="0.09"/>
      <circle cx="34.00" cy="140.32" r="0.63" fill="currentColor" opacity="0.10"/>
      <circle cx="150.51" cy="160.64" r="0.65" fill="currentColor" opacity="0.12"/>
      <circle cx="32.33" cy="143.21" r="0.67" fill="currentColor" opacity="0.14"/>
      <circle cx="150.32" cy="163.81" r="0.69" fill="currentColor" opacity="0.16"/>
      <circle cx="32.45" cy="146.45" r="0.72" fill="currentColor" opacity="0.19"/>
      <circle cx="148.30" cy="166.69" r="0.74" fill="currentColor" opacity="0.21"/>
      <circle cx="34.43" cy="149.94" r="0.76" fill="currentColor" opacity="0.24"/>
      <circle cx="144.45" cy="169.18" r="0.78" fill="currentColor" opacity="0.26"/>
      <circle cx="38.25" cy="153.58" r="0.80" fill="currentColor" opacity="0.29"/>
      <circle cx="138.83" cy="171.18" r="0.82" fill="currentColor" opacity="0.32"/>
      <circle cx="43.87" cy="157.25" r="0.85" fill="currentColor" opacity="0.35"/>
      <circle cx="131.57" cy="172.61" r="0.86" fill="currentColor" opacity="0.38"/>
      <circle cx="51.14" cy="160.82" r="0.88" fill="currentColor" opacity="0.40"/>
      <circle cx="122.89" cy="173.39" r="0.90" fill="currentColor" opacity="0.42"/>
      <circle cx="59.85" cy="164.16" r="0.91" fill="currentColor" opacity="0.45"/>
      <circle cx="113.07" cy="173.49" r="0.92" fill="currentColor" opacity="0.46"/>
      <circle cx="69.69" cy="167.14" r="0.93" fill="currentColor" opacity="0.48"/>
      <circle cx="102.44" cy="172.88" r="0.94" fill="currentColor" opacity="0.49"/>
      <circle cx="80.34" cy="169.65" r="0.95" fill="currentColor" opacity="0.50"/>
      <circle cx="91.39" cy="171.59" r="0.95" fill="currentColor" opacity="0.50"/>
  </g>
  <g id="band-12">
      <circle cx="91.91" cy="149.71" r="0.52" fill="currentColor" opacity="0.03"/>
      <circle cx="101.77" cy="151.66" r="0.52" fill="currentColor" opacity="0.03"/>
      <circle cx="81.93" cy="148.46" r="0.52" fill="currentColor" opacity="0.03"/>
      <circle cx="111.07" cy="154.21" r="0.53" fill="currentColor" opacity="0.03"/>
      <circle cx="72.31" cy="147.97" r="0.53" fill="currentColor" opacity="0.03"/>
      <circle cx="119.38" cy="157.25" r="0.54" fill="currentColor" opacity="0.04"/>
      <circle cx="63.48" cy="148.26" r="0.54" fill="currentColor" opacity="0.04"/>
      <circle cx="126.28" cy="160.66" r="0.56" fill="currentColor" opacity="0.05"/>
      <circle cx="55.88" cy="149.34" r="0.56" fill="currentColor" opacity="0.05"/>
      <circle cx="131.39" cy="164.28" r="0.59" fill="currentColor" opacity="0.07"/>
      <circle cx="49.92" cy="151.17" r="0.59" fill="currentColor" opacity="0.07"/>
      <circle cx="134.39" cy="167.92" r="0.62" fill="currentColor" opacity="0.09"/>
      <circle cx="45.94" cy="153.70" r="0.62" fill="currentColor" opacity="0.09"/>
      <circle cx="135.07" cy="171.41" r="0.66" fill="currentColor" opacity="0.13"/>
      <circle cx="44.24" cy="156.80" r="0.66" fill="currentColor" opacity="0.13"/>
      <circle cx="133.28" cy="174.55" r="0.70" fill="currentColor" opacity="0.17"/>
      <circle cx="44.99" cy="160.35" r="0.71" fill="currentColor" opacity="0.17"/>
      <circle cx="129.03" cy="177.13" r="0.75" fill="currentColor" opacity="0.22"/>
      <circle cx="48.24" cy="164.14" r="0.75" fill="currentColor" opacity="0.22"/>
      <circle cx="122.48" cy="179.00" r="0.79" fill="currentColor" opacity="0.27"/>
      <circle cx="53.90" cy="167.97" r="0.79" fill="currentColor" opacity="0.27"/>
      <circle cx="113.96" cy="180.02" r="0.82" fill="currentColor" opacity="0.31"/>
      <circle cx="61.70" cy="171.62" r="0.82" fill="currentColor" opacity="0.32"/>
      <circle cx="103.94" cy="180.10" r="0.84" fill="currentColor" opacity="0.35"/>
      <circle cx="71.21" cy="174.84" r="0.84" fill="currentColor" opacity="0.35"/>
      <circle cx="93.01" cy="179.22" r="0.86" fill="currentColor" opacity="0.37"/>
      <circle cx="81.87" cy="177.43" r="0.86" fill="currentColor" opacity="0.37"/>
  </g>
  <g id="band-13">
      <circle cx="88.82" cy="168.30" r="0.58" fill="currentColor" opacity="0.06"/>
      <circle cx="96.91" cy="170.20" r="0.58" fill="currentColor" opacity="0.06"/>
      <circle cx="80.57" cy="167.61" r="0.58" fill="currentColor" opacity="0.06"/>
      <circle cx="103.33" cy="172.96" r="0.60" fill="currentColor" opacity="0.07"/>
      <circle cx="73.69" cy="168.25" r="0.60" fill="currentColor" opacity="0.07"/>
      <circle cx="106.82" cy="176.06" r="0.63" fill="currentColor" opacity="0.09"/>
      <circle cx="69.51" cy="170.14" r="0.63" fill="currentColor" opacity="0.10"/>
      <circle cx="106.63" cy="178.92" r="0.66" fill="currentColor" opacity="0.12"/>
      <circle cx="68.93" cy="172.94" r="0.66" fill="currentColor" opacity="0.12"/>
      <circle cx="102.69" cy="180.96" r="0.69" fill="currentColor" opacity="0.15"/>
      <circle cx="72.16" cy="176.11" r="0.69" fill="currentColor" opacity="0.16"/>
      <circle cx="95.70" cy="181.72" r="0.71" fill="currentColor" opacity="0.18"/>
      <circle cx="78.65" cy="179.01" r="0.71" fill="currentColor" opacity="0.18"/>
      <circle cx="87.09" cy="181.02" r="0.72" fill="currentColor" opacity="0.19"/>
  </g>
</svg>